# xmcd
#
# Track frame offsets:
#	150
#	13475
#	26539
#	40949
#	68954
#	78722
#	91174
#	109403
#	120153
#	131475
#	146546
#	161912
#
# Disc length: 2280 seconds
#
# Revision: 0
# Processed by: cddbd v1.5.1PL2 Copyright (c) Steve Scherf et al.
# Submitted via: AudioConverter v5.0 Copyright (c) Ultimate Shareware Ltd
#
DISCID=a308e60c
DTITLE=Jack Jackson - Echoes of Legends
DYEAR=2001
DGENRE=Country
TTITLE0=Waitin' For A Train
TTITLE1=Move It On Over
TTITLE2=Wabash Cannonball
TTITLE3=Deck Of Cards
TTITLE4=I'm Walkin' The Floor Over You
TTITLE5=You Don't Know Me
TTITLE6=Just A Closer Walk With Thee
TTITLE7=He'll Have To Go
TTITLE8=San Antonio Rose
TTITLE9=Have I Told You Lately That I Love You
TTITLE10=Keep On The Sunny Side/Circle Be Unbroken
TTITLE11=Blue Moon Of Kentucky
EXTD=
EXTT0=
EXTT1=
EXTT2=
EXTT3=
EXTT4=
EXTT5=
EXTT6=
EXTT7=
EXTT8=
EXTT9=
EXTT10=
EXTT11=
PLAYORDER=
